{"title":"Jurassic World - (2015) x264 Triple Audio (Hindi (Cam)-Ta","uid":12027567,"size":1040735984,"categoryP":"video","categoryS":"movies","magnet":"?xt=urn:btih:e3a45c949f445e3c7bdd91349b45c88b65290b6b&amp;dn=Jurassic+World+-+%282015%29+x264+Triple+Audio+%28Hindi+%28Cam%29-Ta&amp;tr=udp%3A%2F%2Ftracker.openbittorrent.com%3A80&amp;tr=udp%3A%2F%2Fopen.demonii.com%3A1337&amp;tr=udp%3A%2F%2Ftracker.coppersurfer.tk%3A6969&amp;tr=udp%3A%2F%2Fexodus.desync.com%3A6969","seeders":4,"leechers":1,"uploader":"olddilli","files":4,"time":1434551126,"description":"[CENTER][IMG]http://th08.deviantart.net/fs70/PRE/f/2011/247/e/0/iori_yagami_wallpaper_2_by_meanhonkey1980-d48t8bq.jpg[/IMG]\n\n[IMG]http://t1.gstatic.com/images?q=tbn:ANd9GcT9t_mvZu0k-wS_QqvQmPKc6FMkwJoj0HgUjwLJK7uGG_NtZBxV[/IMG]\n\n[COLOR=&quot;Red&quot;]Jurassic World-(2015) DVDScr x264 Triple Audio (Hindi (Cam)-Tamil (LiNE)-English) By Sam[/COLOR]\n\nMedia Info:\n\n[quote]Format                      : Matroska\nFormat version              : Version 4 / Version 2\nFile size                   : 982 MiB\nDuration                    : 1h 55mn\nOverall bit rate            : 1 189 Kbps\nMovie name                  : Jurassic World - (2015) DVDScr x264 Triple Audio (Hindi (Cam)-Tamil (LiNE)-English) By Sam\nEncoded date                : UTC 2015-06-17 11:48:40\nWriting application         : mkvmerge v7.5.0 ('Glass Culture') 32bit built on Jan  4 2015 16:37:25\nWriting library             : libebml v1.3.1 + libmatroska v1.4.2\nDURATION                    : 01:55:28.974000000\n\nVideo\nID                          : 1\nFormat                      : AVC\nFormat/Info                 : Advanced Video Codec\nFormat profile              : High@L3\nFormat settings, CABAC      : Yes\nFormat settings, ReFrames   : 4 frames\nCodec ID                    : V_MPEG4/ISO/AVC\nDuration                    : 1h 55mn\nNominal bit rate            : 865 Kbps\nWidth                       : 608 pixels\nHeight                      : 280 pixels\nDisplay aspect ratio        : 2.2:1\nFrame rate mode             : Constant\nFrame rate                  : 50.000 fps\nColor space                 : YUV\nChroma subsampling          : 4:2:0\nBit depth                   : 8 bits\nScan type                   : Progressive\nBits/(Pixel*Frame)          : 0.102\nTitle                       : DevilRG\nWriting library             : x264 core 146 r2538 121396c\nLanguage                    : English\nDefault                     : Yes\nForced                      : Yes\n\nAudio #1\nID                          : 2\nFormat                      : AAC\nFormat/Info                 : Advanced Audio Codec\nFormat profile              : LC\nCodec ID                    : A_AAC\nDuration                    : 1h 55mn\nChannel(s)                  : 2 channels\nChannel positions           : Front: L R\nSampling rate               : 44.1 KHz\nCompression mode            : Lossy\nDelay relative to video     : 16ms\nTitle                       : Olddilli\nLanguage                    : Hindi\nDefault                     : No\nForced                      : Yes\n\nAudio #2\nID                          : 3\nFormat                      : MPEG Audio\nFormat version              : Version 1\nFormat profile              : Layer 3\nMode                        : Joint stereo\nMode extension              : MS Stereo\nCodec ID                    : A_MPEG/L3\nCodec ID/Hint               : MP3\nDuration                    : 1h 55mn\nBit rate mode               : Constant\nBit rate                    : 128 Kbps\nChannel(s)                  : 2 channels\nSampling rate               : 44.1 KHz\nCompression mode            : Lossy\nStream size                 : 106 MiB (11%)\nTitle                       : DevilRG\nWriting library             : LAME3.98r\nLanguage                    : Tamil\nDefault                     : No\nForced                      : No\n\nAudio #3\nID                          : 4\nFormat                      : AC-3\nFormat/Info                 : Audio Coding 3\nMode extension              : CM (complete main)\nFormat settings, Endianness : Big\nCodec ID                    : A_AC3\nDuration                    : 1h 55mn\nBit rate mode               : Constant\nBit rate                    : 96.0 Kbps\nChannel(s)                  : 2 channels\nChannel positions           : Front: L R\nSampling rate               : 44.1 KHz\nCompression mode            : Lossy\nStream size                 : 79.3 MiB (8%)\nTitle                       : DevilRG\nLanguage                    : English\nDefault                     : No\nForced                      : No\n\n[/quote]\n\nScreenshots:\n\n[IMG]http://i.imgur.com/pC44Ggg.jpg[/IMG]\n\n[COLOR=&quot;Blue&quot;]Give Proper Credit To Olddilli Where Ever You Release[/COLOR]\n\n[COLOR=&quot;Red&quot;]I Seed only 12 o clock in night Remain in morning after 12 o clock[/COLOR]\n\n[IMG]http://i.imgur.com/oRPka6X.gif[/IMG]\n\n[IMG]http://i.imgur.com/017mUDK.gif[/IMG]\n\n[/CENTER]","torrent":{"xt":"urn:btih:e3a45c949f445e3c7bdd91349b45c88b65290b6b","amp;dn":"Jurassic+World+-+%282015%29+x264+Triple+Audio+%28Hindi+%28Cam%29-Ta","amp;tr":["udp%3A%2F%2Ftracker.openbittorrent.com%3A80","udp%3A%2F%2Fopen.demonii.com%3A1337","udp%3A%2F%2Ftracker.coppersurfer.tk%3A6969","udp%3A%2F%2Fexodus.desync.com%3A6969"],"infoHash":"e3a45c949f445e3c7bdd91349b45c88b65290b6b","infoHashBuffer":{"type":"Buffer","data":[227,164,92,148,159,68,94,60,123,221,145,52,155,69,200,139,101,41,11,107]},"announce":[],"urlList":[]}}